<mxfile host="app.diagrams.net" agent="Mozilla/5.0 (Windows NT 10.0; Win64; x64) AppleWebKit/537.36 (KHTML, like Gecko) Chrome/135.0.0.0 Safari/537.36" version="26.2.12">
  <diagram name="Page-1" id="htqmrhWz9S-cRM7N_3E6">
    <mxGraphModel dx="1247" dy="695" grid="1" gridSize="10" guides="1" tooltips="1" connect="1" arrows="1" fold="1" page="1" pageScale="1" pageWidth="850" pageHeight="1100" math="0" shadow="0">
      <root>
        <mxCell id="0" />
        <mxCell id="1" parent="0" />
        <mxCell id="0ZCgRh2c8RLjrWhWgDdl-1" value="" style="rounded=0;whiteSpace=wrap;html=1;glass=1;" vertex="1" parent="1">
          <mxGeometry x="10" y="10" width="380" height="420" as="geometry" />
        </mxCell>
        <mxCell id="0ZCgRh2c8RLjrWhWgDdl-8" value="Kirchenkreis drei" style="text;html=1;align=left;verticalAlign=middle;whiteSpace=wrap;rounded=0;fontSize=20;" vertex="1" parent="1">
          <mxGeometry x="20" y="20" width="280" height="30" as="geometry" />
        </mxCell>
        <mxCell id="0ZCgRh2c8RLjrWhWgDdl-9" value="" style="group" vertex="1" connectable="0" parent="1">
          <mxGeometry x="250" y="70" width="130" height="150" as="geometry" />
        </mxCell>
        <mxCell id="0ZCgRh2c8RLjrWhWgDdl-3" value="" style="rounded=0;whiteSpace=wrap;html=1;" vertex="1" parent="0ZCgRh2c8RLjrWhWgDdl-9">
          <mxGeometry width="130" height="150" as="geometry" />
        </mxCell>
        <mxCell id="0ZCgRh2c8RLjrWhWgDdl-4" value="Standorte" style="text;html=1;align=left;verticalAlign=middle;whiteSpace=wrap;rounded=0;" vertex="1" parent="0ZCgRh2c8RLjrWhWgDdl-9">
          <mxGeometry x="10" width="60" height="30" as="geometry" />
        </mxCell>
        <mxCell id="0ZCgRh2c8RLjrWhWgDdl-5" value="Standort 1" style="rounded=1;whiteSpace=wrap;html=1;fillColor=#fff2cc;strokeColor=#d6b656;glass=1;" vertex="1" parent="0ZCgRh2c8RLjrWhWgDdl-9">
          <mxGeometry x="10" y="30" width="110" height="30" as="geometry" />
        </mxCell>
        <mxCell id="0ZCgRh2c8RLjrWhWgDdl-6" value="Standort 2" style="rounded=1;whiteSpace=wrap;html=1;fillColor=#fff2cc;strokeColor=#d6b656;glass=1;" vertex="1" parent="0ZCgRh2c8RLjrWhWgDdl-9">
          <mxGeometry x="10" y="70" width="110" height="30" as="geometry" />
        </mxCell>
        <mxCell id="0ZCgRh2c8RLjrWhWgDdl-7" value="Standort 3" style="rounded=1;whiteSpace=wrap;html=1;fillColor=#fff2cc;strokeColor=#d6b656;glass=1;" vertex="1" parent="0ZCgRh2c8RLjrWhWgDdl-9">
          <mxGeometry x="10" y="110" width="110" height="30" as="geometry" />
        </mxCell>
        <mxCell id="0ZCgRh2c8RLjrWhWgDdl-10" value="" style="rounded=0;whiteSpace=wrap;html=1;" vertex="1" parent="1">
          <mxGeometry x="250" y="230" width="130" height="30" as="geometry" />
        </mxCell>
        <mxCell id="0ZCgRh2c8RLjrWhWgDdl-11" value="Unsere Termine" style="text;html=1;align=center;verticalAlign=middle;whiteSpace=wrap;rounded=0;" vertex="1" parent="1">
          <mxGeometry x="250" y="230" width="130" height="30" as="geometry" />
        </mxCell>
        <mxCell id="0ZCgRh2c8RLjrWhWgDdl-12" value="CMS Block" style="rounded=1;whiteSpace=wrap;html=1;fillColor=#dae8fc;strokeColor=#6c8ebf;glass=1;" vertex="1" parent="1">
          <mxGeometry x="250" y="270" width="130" height="150" as="geometry" />
        </mxCell>
        <mxCell id="0ZCgRh2c8RLjrWhWgDdl-15" value="EigenstÃ¤ndige Inhalte" style="swimlane;fontStyle=0;childLayout=stackLayout;horizontal=1;startSize=30;horizontalStack=0;resizeParent=1;resizeParentMax=0;resizeLast=0;collapsible=1;marginBottom=0;whiteSpace=wrap;html=1;" vertex="1" parent="1">
          <mxGeometry x="25" y="70" width="185" height="120" as="geometry" />
        </mxCell>
        <mxCell id="0ZCgRh2c8RLjrWhWgDdl-16" value="-----------" style="text;strokeColor=none;fillColor=none;align=left;verticalAlign=middle;spacingLeft=4;spacingRight=4;overflow=hidden;points=[[0,0.5],[1,0.5]];portConstraint=eastwest;rotatable=0;whiteSpace=wrap;html=1;" vertex="1" parent="0ZCgRh2c8RLjrWhWgDdl-15">
          <mxGeometry y="30" width="185" height="30" as="geometry" />
        </mxCell>
        <mxCell id="0ZCgRh2c8RLjrWhWgDdl-17" value="-----------" style="text;strokeColor=none;fillColor=none;align=left;verticalAlign=middle;spacingLeft=4;spacingRight=4;overflow=hidden;points=[[0,0.5],[1,0.5]];portConstraint=eastwest;rotatable=0;whiteSpace=wrap;html=1;" vertex="1" parent="0ZCgRh2c8RLjrWhWgDdl-15">
          <mxGeometry y="60" width="185" height="30" as="geometry" />
        </mxCell>
        <mxCell id="0ZCgRh2c8RLjrWhWgDdl-18" value="-----------" style="text;strokeColor=none;fillColor=none;align=left;verticalAlign=middle;spacingLeft=4;spacingRight=4;overflow=hidden;points=[[0,0.5],[1,0.5]];portConstraint=eastwest;rotatable=0;whiteSpace=wrap;html=1;" vertex="1" parent="0ZCgRh2c8RLjrWhWgDdl-15">
          <mxGeometry y="90" width="185" height="30" as="geometry" />
        </mxCell>
        <mxCell id="0ZCgRh2c8RLjrWhWgDdl-20" value="Ansprechsperson" style="rounded=1;whiteSpace=wrap;html=1;fillColor=#dae8fc;strokeColor=#6c8ebf;glass=1;" vertex="1" parent="1">
          <mxGeometry x="20" y="290" width="185" height="60" as="geometry" />
        </mxCell>
        <mxCell id="0ZCgRh2c8RLjrWhWgDdl-21" value="Kontaktformular" style="rounded=1;whiteSpace=wrap;html=1;fillColor=#dae8fc;strokeColor=#6c8ebf;glass=1;" vertex="1" parent="1">
          <mxGeometry x="20" y="360" width="185" height="60" as="geometry" />
        </mxCell>
        <mxCell id="0ZCgRh2c8RLjrWhWgDdl-22" value="" style="rounded=1;whiteSpace=wrap;html=1;fillColor=#dae8fc;strokeColor=#6c8ebf;glass=1;" vertex="1" parent="1">
          <mxGeometry x="20" y="200" width="185" height="80" as="geometry" />
        </mxCell>
        <mxCell id="0ZCgRh2c8RLjrWhWgDdl-23" value="News Kanal" style="text;html=1;align=left;verticalAlign=middle;whiteSpace=wrap;rounded=0;" vertex="1" parent="1">
          <mxGeometry x="20" y="200" width="180" height="20" as="geometry" />
        </mxCell>
        <mxCell id="0ZCgRh2c8RLjrWhWgDdl-24" value="News Artikel" style="rounded=1;whiteSpace=wrap;html=1;fillColor=#f5f5f5;fontColor=#333333;strokeColor=#666666;glass=1;" vertex="1" parent="1">
          <mxGeometry x="25" y="220" width="120" height="20" as="geometry" />
        </mxCell>
        <mxCell id="0ZCgRh2c8RLjrWhWgDdl-25" value="News Artikel" style="rounded=1;whiteSpace=wrap;html=1;fillColor=#f5f5f5;fontColor=#333333;strokeColor=#666666;glass=1;" vertex="1" parent="1">
          <mxGeometry x="25" y="250" width="120" height="20" as="geometry" />
        </mxCell>
      </root>
    </mxGraphModel>
  </diagram>
</mxfile>
